# xmcd
# Copyright (C) 1995-1998 Ti Kan
#
# Track frame offsets:
#       150
#       17210
#       36096
#       45536
#       60451
#       70084
#       86931
#       98547
#       110698
#       124933
#       142804
#
# Disc length: 2070 seconds
#
# Revision: 0
# Processed by: cddbd v1.5.2PL0 Copyright (c) Steve Scherf et al.
# Submitted via: CD-Transfer v1.0
#
DISCID=9008140b
DTITLE=Erotic Biljan and His Heretics - Biljan, Zhalac
DYEAR=10
DGENRE=
TTITLE0=Rock'n'roll Revolution No.5
TTITLE1=Valentine's Day Massacre
TTITLE2=No Ma'am
TTITLE3=Silver Pieces
TTITLE4=Tips From The Lips
TTITLE5=Candy Man From Planet Tomorrow
TTITLE6=Good Ass, Bad Shoes
TTITLE7=Hey Girl, Hey Man
TTITLE8=Sugar, Sugar Honey Pot
TTITLE9=Burnside Blues
TTITLE10=Lupam, Urlam
EXTD=
EXTT0=
EXTT1=
EXTT2=
EXTT3=
EXTT4=
EXTT5=
EXTT6=
EXTT7=
EXTT8=
EXTT9=
EXTT10=
PLAYORDER=
